<?xml version="1.0" standalone="no"?>
<!DOCTYPE svg PUBLIC "-//W3C//DTD SVG 20010904//EN"
 "http://www.w3.org/TR/2001/REC-SVG-20010904/DTD/svg10.dtd">
<svg version="1.0" xmlns="http://www.w3.org/2000/svg"
 width="1024.000000pt" height="1024.000000pt" viewBox="0 0 1024.000000 1024.000000"
 preserveAspectRatio="xMidYMid meet">

<g transform="translate(0.000000,1024.000000) scale(0.100000,-0.100000)"
fill="#000000" stroke="none">
<path d="M0 8377 l0 -1863 46 -40 c26 -21 83 -65 128 -97 44 -32 96 -70 113
-85 131 -108 229 -130 337 -75 l59 30 -59 35 c-32 18 -85 40 -116 48 -66 15
-122 45 -113 61 4 5 0 21 -9 34 -9 13 -16 31 -16 40 0 21 20 19 21 -2 1 -31
35 -78 60 -84 13 -4 55 -14 94 -23 38 -9 92 -27 120 -41 27 -13 82 -31 122
-39 79 -16 111 -36 285 -172 57 -44 139 -98 183 -120 98 -48 103 -50 88 -33
-17 17 -16 32 1 26 24 -9 56 30 56 68 0 19 1 38 2 43 1 4 -6 8 -16 10 -9 2
-27 13 -39 23 -12 11 -35 31 -52 44 -41 32 -28 40 26 15 54 -24 75 -25 83 -3
6 15 9 15 16 3 5 -8 6 -18 4 -22 -3 -4 6 -8 19 -8 29 0 33 20 24 110 -3 25 -6
54 -6 65 -1 17 -3 18 -12 5 -9 -12 -10 -10 -6 9 3 13 2 34 -3 46 -6 15 -5 25
1 27 16 5 -2 42 -41 85 -46 50 -84 103 -77 109 3 3 29 -18 59 -48 57 -57 94
-88 105 -88 4 0 2 5 -5 12 -20 20 -14 38 15 38 24 0 25 -1 10 -13 -16 -11 -16
-13 2 -29 16 -14 22 -14 37 -3 16 11 16 15 5 29 -11 13 -11 19 -1 31 20 24 30
17 30 -20 0 -33 2 -35 35 -35 34 0 35 1 35 40 0 22 5 40 10 40 6 0 10 38 11
93 0 50 3 86 6 80 8 -20 23 -15 23 8 0 12 4 17 11 14 6 -4 8 -13 5 -21 -3 -8
-1 -14 4 -14 6 0 10 18 10 40 0 22 4 40 10 40 5 0 15 18 21 40 7 21 15 39 18
38 3 0 36 0 74 1 l67 1 0 45 0 45 59 0 c107 0 181 -11 181 -28 0 -12 11 -14
61 -8 34 3 72 6 85 6 12 0 35 13 50 29 20 22 35 29 55 26 16 -2 33 3 40 11 9
11 9 14 0 14 -16 0 -42 26 -34 34 4 3 20 6 37 6 l31 1 -25 14 c-29 16 -225 21
-276 6 -41 -12 -104 7 -104 31 0 12 8 18 25 19 29 2 32 2 66 16 43 18 105 20
94 3 -3 -5 -18 -7 -33 -4 -15 3 -38 1 -52 -5 -18 -8 9 -9 100 -4 132 6 172 13
77 13 -31 0 -59 5 -62 10 -3 6 -16 10 -28 10 -16 0 -18 3 -9 9 10 6 7 10 -14
15 -15 4 -36 18 -47 32 -12 16 -25 23 -37 19 -21 -7 -43 17 -34 38 4 11 -6 23
-30 39 -20 13 -38 30 -41 39 -3 9 -14 24 -25 34 -19 17 -21 17 -40 0 -45 -41
-17 14 59 115 l79 104 -66 40 c-59 36 -74 41 -127 40 -42 0 -73 -6 -102 -22
-63 -33 -82 -29 -169 39 -91 70 -185 119 -230 119 -18 0 -45 7 -60 15 -19 10
-59 15 -119 15 -49 0 -112 6 -138 13 -44 11 -35 12 101 10 232 -3 300 -19 446
-108 l91 -55 75 26 c65 23 86 26 160 21 48 -3 86 -10 88 -16 5 -15 27 -14 41
2 9 11 -11 24 -96 63 -122 55 -151 77 -187 137 -25 44 -61 73 -151 122 -88 48
-141 86 -163 119 -24 35 -52 68 -120 141 -25 28 -57 62 -71 78 -13 15 -20 27
-14 27 13 0 139 -114 198 -179 78 -84 111 -110 205 -157 76 -37 109 -62 167
-120 39 -41 77 -74 83 -74 6 0 30 -8 53 -19 23 -10 77 -33 119 -51 43 -17 80
-36 84 -41 9 -15 34 -10 34 6 0 8 7 15 15 15 18 0 44 25 94 88 31 40 33 46 26
90 -4 26 -9 84 -11 129 -3 90 -22 138 -58 147 -12 3 -41 35 -66 70 -37 53 -50
65 -73 66 -19 0 -44 15 -80 50 -31 29 -85 66 -133 89 -44 21 -98 53 -118 72
-37 32 -110 131 -123 166 -7 21 -107 121 -174 175 -57 47 -92 61 -199 83 -118
24 -175 53 -251 126 -36 35 -101 91 -145 124 -43 33 -106 85 -140 116 -64 59
-69 61 -202 80 -113 16 -117 32 -5 24 139 -11 187 -26 248 -82 59 -54 149
-123 160 -123 4 0 37 -26 74 -58 127 -112 120 -108 309 -141 61 -11 126 -27
144 -35 40 -20 187 -160 248 -236 57 -72 149 -164 178 -179 12 -7 59 -20 105
-31 45 -10 105 -26 132 -35 28 -8 91 -29 140 -45 50 -16 116 -34 147 -41 74
-16 102 -45 124 -129 9 -38 30 -84 51 -112 35 -48 47 -56 57 -39 4 5 68 43
144 84 196 108 207 121 133 170 -30 20 -43 39 -62 88 -15 43 -36 76 -63 100
-38 36 -39 38 -26 68 l13 32 17 -38 c9 -21 27 -47 39 -58 12 -10 32 -41 43
-67 19 -44 76 -108 97 -108 4 0 13 -10 18 -23 10 -22 15 -23 64 -17 50 7 52 6
31 -8 l-23 -15 38 -19 38 -18 -40 6 c-37 7 -39 6 -26 -10 8 -9 16 -15 18 -12
3 2 23 -4 46 -15 23 -10 61 -19 85 -19 23 0 42 -4 42 -10 0 -5 19 -11 43 -11
23 -1 34 -3 25 -6 -10 -2 -18 -12 -18 -22 0 -20 32 -61 48 -61 6 0 14 -9 17
-20 3 -11 11 -20 16 -20 6 0 9 -14 7 -32 -2 -27 2 -35 25 -46 16 -8 31 -20 34
-28 3 -8 18 -14 35 -14 17 0 27 -4 23 -10 -6 -10 47 -15 56 -5 11 10 -4 75
-17 75 -8 0 -14 5 -14 10 0 14 37 13 42 -1 3 -8 10 -8 26 2 26 16 24 30 -6 44
-12 5 -22 18 -22 27 0 15 -9 18 -45 18 l-45 0 0 40 c0 22 -4 40 -10 40 -5 0
-10 18 -10 40 0 22 4 40 9 40 5 0 11 21 13 48 6 58 53 112 98 112 16 0 30 7
34 15 3 8 17 20 31 25 32 12 40 32 27 70 -12 32 3 54 19 29 7 -11 9 -10 9 4 0
9 5 17 11 17 6 0 8 9 4 20 -4 11 -2 20 4 20 6 0 11 -4 11 -10 0 -5 9 -1 20 10
11 11 28 20 38 20 9 0 33 8 52 19 19 10 86 35 148 56 61 21 112 42 112 47 0 4
-4 8 -10 8 -5 0 -10 9 -10 20 0 20 0 20 41 0 25 -13 54 -20 77 -18 l37 4 -40
8 c-22 5 -51 17 -65 26 -14 9 -31 15 -37 13 -7 -3 -24 4 -38 15 -14 11 -43 23
-65 27 -22 4 -43 12 -47 17 -4 8 2 9 18 3 13 -4 38 -8 54 -9 17 -1 40 -7 52
-14 12 -7 24 -12 27 -12 10 0 -7 65 -20 76 -12 10 -37 94 -29 102 6 6 75 -138
75 -156 0 -50 58 -61 248 -50 l73 5 137 134 c75 74 145 147 156 162 15 23 18
44 17 105 -1 50 1 73 8 67 5 -5 11 -21 13 -35 4 -32 25 -32 41 -1 7 13 17 24
22 24 25 1 40 33 41 86 1 31 5 69 9 85 9 31 -5 46 -42 46 -13 0 -23 5 -23 11
0 6 9 9 19 6 30 -8 54 25 49 68 -4 36 5 47 16 19 3 -9 6 -28 6 -44 0 -36 26
-60 35 -31 7 23 35 36 35 16 0 -7 -7 -20 -15 -29 -9 -9 -11 -17 -5 -21 5 -3
10 -3 10 2 0 4 4 2 9 -6 8 -12 15 -10 40 10 17 13 34 35 37 49 4 14 13 30 21
35 11 8 10 15 -2 39 -8 15 -12 32 -9 38 9 13 34 -11 34 -33 0 -35 17 -19 30
27 9 30 16 41 21 32 10 -15 16 -1 23 52 2 19 3 8 2 -25 -1 -33 -6 -69 -10 -80
-8 -19 -7 -19 11 1 27 31 79 64 100 64 10 0 25 6 32 13 11 10 13 9 8 -5 -3
-10 -2 -20 3 -23 6 -4 10 -2 10 4 0 6 6 8 14 5 19 -7 39 32 32 62 -4 14 -2 24
4 24 6 0 9 4 5 10 -3 5 -13 6 -23 3 -20 -8 23 53 76 106 35 35 58 36 27 1 -18
-20 -18 -21 3 -27 19 -4 22 -12 22 -52 0 -35 -3 -42 -11 -31 -9 13 -10 13 -6
0 2 -10 13 -14 31 -12 29 4 65 -29 66 -60 0 -14 9 -18 39 -18 22 0 42 -5 44
-12 4 -10 8 -9 16 2 10 13 11 13 11 0 1 -21 30 48 30 71 0 12 7 19 18 19 11 0
25 14 36 36 9 20 19 34 22 31 5 -5 -54 -139 -65 -147 -10 -8 -71 -133 -71
-148 0 -6 -4 -12 -9 -12 -4 0 -23 -29 -41 -64 -25 -51 -31 -72 -26 -98 3 -18
11 -67 18 -108 10 -72 10 -77 -16 -127 -14 -29 -26 -59 -26 -68 0 -8 -4 -15
-10 -15 -5 0 -10 -24 -10 -54 0 -30 -5 -58 -10 -61 -13 -8 -41 -76 -37 -88 2
-6 11 6 20 26 34 70 50 50 22 -27 -12 -36 -12 -41 3 -52 9 -8 23 -14 31 -14
39 -1 408 -94 451 -114 l35 -16 -37 4 c-38 5 -52 -7 -22 -18 29 -11 64 -7 64
9 0 8 5 15 10 15 6 0 10 -5 10 -11 0 -5 4 -8 9 -5 5 4 11 2 13 -4 1 -5 23 -12
47 -15 24 -3 49 -9 55 -13 6 -3 16 -7 21 -7 28 -2 75 -18 75 -25 0 -5 7 -7 15
-4 8 3 28 1 45 -4 26 -10 32 -8 44 11 8 12 17 56 20 98 4 42 11 91 16 110 7
24 6 48 -6 90 -9 31 -14 67 -11 80 3 17 5 14 6 -12 0 -21 10 -46 22 -60 19
-21 21 -32 15 -99 -3 -41 -9 -88 -12 -105 -10 -48 10 -17 31 48 11 31 23 57
27 57 4 0 8 -4 8 -8 0 -14 -37 -116 -53 -148 -8 -16 -18 -43 -21 -61 -7 -28
-4 -34 28 -56 20 -13 33 -27 30 -30 -4 -3 -3 -22 0 -42 7 -34 30 -48 39 -22 2
6 2 -10 -1 -38 -2 -27 -8 -54 -13 -60 -5 -5 -9 -16 -9 -24 0 -8 -7 -23 -17
-33 -15 -17 -15 -18 0 -18 24 0 21 -13 -8 -40 -16 -15 -23 -30 -19 -42 3 -10
1 -18 -5 -18 -6 0 -11 -13 -11 -30 0 -20 -5 -30 -15 -30 -8 0 -15 -9 -15 -20
0 -15 -7 -20 -25 -20 -22 0 -25 -4 -25 -35 0 -19 -3 -34 -7 -33 -17 3 -45 -16
-53 -36 -6 -16 -3 -24 14 -33 19 -11 18 -12 -14 -12 -57 0 -108 -6 -117 -14
-16 -17 -7 -228 11 -239 19 -13 36 -9 36 8 0 34 88 88 163 98 26 4 47 9 47 12
0 10 -54 54 -66 54 -8 0 -14 4 -14 9 0 5 -11 12 -25 15 -14 4 -23 11 -20 15 6
11 45 2 45 -10 0 -5 11 -9 24 -9 14 0 28 -4 31 -10 10 -17 28 -11 21 6 -6 15
-4 15 10 3 14 -11 19 -10 34 9 10 12 21 28 23 35 4 9 8 8 16 -3 8 -11 10 -7 6
20 -3 19 -3 29 1 23 9 -20 20 -15 32 12 6 14 18 25 27 25 8 0 15 7 15 15 0 8
8 23 18 33 10 10 25 27 33 38 17 23 84 74 97 74 6 0 12 4 14 9 2 4 20 11 41
15 29 5 37 4 37 -8 0 -8 -9 -17 -19 -21 -16 -5 -18 -12 -14 -48 7 -49 26 -69
31 -32 3 22 8 25 43 25 29 0 39 4 39 16 0 12 5 11 20 -7 l20 -24 6 23 c4 12
14 22 24 22 10 0 20 10 23 22 5 17 9 19 20 10 11 -10 17 -9 26 2 10 11 9 16
-2 23 -8 4 -16 18 -19 30 -6 22 -5 22 22 8 22 -11 27 -20 24 -42 -2 -15 -1
-20 2 -10 3 9 14 17 24 17 10 0 36 10 57 22 l38 22 -23 -25 c-12 -14 -22 -28
-22 -32 0 -3 -11 -17 -25 -31 -33 -33 -32 -43 5 -51 16 -4 33 -13 38 -20 12
-22 98 -18 210 10 14 3 21 2 18 -4 -4 -5 -20 -12 -36 -16 -34 -8 -47 -22 -32
-37 6 -6 8 -16 5 -23 -3 -9 2 -12 14 -9 12 3 33 -10 63 -38 25 -24 83 -77 130
-118 47 -41 105 -94 130 -117 133 -124 156 -137 286 -154 70 -9 126 -10 240
-1 82 6 158 13 169 16 87 17 164 28 176 24 8 -3 -4 -9 -26 -12 -22 -4 -49 -11
-60 -16 -19 -8 -165 -39 -305 -65 -36 -6 -91 -19 -122 -29 -51 -14 -58 -20
-58 -42 0 -31 -11 -36 -202 -73 -84 -17 -218 -45 -298 -61 -210 -44 -240 -50
-306 -55 -66 -6 -81 -8 -178 -29 -37 -9 -73 -19 -80 -24 -6 -5 -38 -14 -71
-21 -65 -13 -366 -80 -480 -106 -201 -47 -252 -57 -385 -79 -80 -14 -185 -32
-235 -41 -49 -9 -139 -25 -200 -35 -60 -11 -148 -29 -195 -41 -116 -28 -116
-28 -191 -43 -76 -15 -89 -21 -89 -42 0 -30 -31 -75 -48 -72 -9 3 -16 10 -14
17 1 7 0 22 -3 33 -7 20 -19 20 -109 -1 -22 -6 -43 -8 -47 -5 -10 6 -182 -25
-410 -75 -101 -22 -290 -61 -419 -86 -287 -56 -377 -80 -400 -105 -3 -3 -24
-12 -48 -20 -33 -10 -55 -11 -100 -3 -82 15 -57 19 -847 -136 -333 -66 -345
-68 -345 -47 0 18 -2 15 95 169 55 87 65 111 54 118 -8 5 -18 9 -22 9 -21 0 7
18 37 24 27 5 42 19 77 69 23 34 52 74 63 88 12 14 30 38 41 53 11 16 35 46
53 68 32 40 41 68 21 68 -6 0 -8 9 -4 20 4 12 2 20 -5 20 -6 0 -9 4 -6 9 3 5
-30 12 -73 15 -113 10 -116 8 -257 -167 -91 -113 -277 -449 -318 -574 -9 -28
-22 -55 -29 -60 -7 -5 -48 -15 -91 -22 -128 -21 -171 -38 -220 -91 -44 -47
-65 -96 -82 -193 -6 -35 -3 -41 35 -77 41 -39 41 -40 16 -40 -15 0 -35 5 -47
11 -11 6 -21 9 -23 7 -3 -3 -35 -182 -35 -198 0 -5 15 -27 34 -47 18 -21 35
-45 38 -53 4 -11 9 -7 17 13 10 25 70 288 103 447 l13 65 180 36 c170 35 254
52 645 135 156 34 539 113 735 153 87 18 111 18 100 2 -4 -7 -39 -166 -95
-436 -64 -303 -223 -1050 -235 -1101 -4 -17 -144 -187 -185 -224 -3 -3 -39
-43 -80 -90 -111 -125 -128 -145 -236 -265 -55 -61 -128 -144 -164 -185 -36
-41 -88 -100 -116 -130 -27 -30 -68 -75 -91 -100 -111 -125 -165 -184 -250
-276 -100 -107 -128 -142 -120 -150 2 -3 233 110 512 251 278 142 509 254 512
251 3 -3 -2 -36 -11 -73 -9 -37 -30 -129 -47 -203 -17 -74 -56 -250 -88 -390
l-58 -255 -139 -78 c-152 -86 -269 -148 -444 -240 -63 -32 -137 -72 -165 -87
-27 -15 -75 -41 -105 -58 -30 -16 -95 -52 -145 -79 -49 -28 -162 -87 -250
-133 -88 -45 -216 -113 -285 -150 -253 -136 -278 -149 -283 -144 -3 3 3 36 14
72 11 37 26 96 33 132 49 222 122 537 165 712 42 171 86 367 131 588 54 262
80 379 87 397 4 12 49 64 98 115 50 51 122 127 160 168 39 41 138 147 221 235
176 187 282 301 343 370 91 101 147 162 230 250 76 79 158 168 349 375 59 64
52 71 -41 42 -34 -11 -109 -32 -167 -47 -180 -47 -394 -105 -427 -116 -30 -9
-31 -12 -20 -32 17 -31 25 -35 82 -43 82 -11 98 -20 91 -50 -4 -15 -16 -47
-28 -71 -12 -25 -21 -52 -21 -59 0 -8 -4 -14 -9 -14 -4 0 -8 -5 -8 -11 0 -15
60 -6 102 15 38 19 61 21 56 4 -3 -7 -38 -26 -80 -43 -61 -24 -87 -42 -141
-98 -37 -37 -73 -67 -82 -67 -8 0 -15 -4 -15 -8 0 -4 -12 -15 -27 -24 -37 -22
-151 -134 -173 -171 -10 -16 -87 -100 -171 -186 -202 -206 -422 -439 -433
-459 -5 -8 -12 -29 -17 -46 -8 -33 -22 -85 -84 -306 -20 -74 -44 -163 -53
-197 -10 -35 -21 -63 -25 -63 -5 0 -6 8 -3 18 2 9 14 60 26 112 12 52 31 133
42 180 11 47 22 92 22 100 1 9 5 20 8 25 3 6 18 60 33 120 l28 110 -12 165
c-7 91 -13 183 -14 205 -2 22 -6 45 -10 51 -8 14 10 72 29 94 7 9 15 32 18 53
2 20 7 41 10 46 3 5 0 11 -6 14 -10 3 -10 9 -2 23 6 11 7 30 3 44 -4 14 -7 40
-8 58 -1 17 -5 32 -11 32 -5 0 -12 11 -16 25 -3 14 -10 25 -14 25 -4 0 -13 14
-19 30 -9 27 -13 29 -29 19 -10 -7 -33 -33 -50 -58 -65 -94 -104 -129 -207
-181 -55 -28 -111 -61 -125 -73 -36 -32 -90 -108 -90 -127 0 -9 -7 -40 -16
-70 -9 -30 -19 -89 -23 -130 l-6 -75 -13 69 c-11 57 -11 75 1 115 8 25 20 73
27 106 11 53 19 66 74 120 34 34 94 80 136 103 41 22 90 56 108 74 45 45 172
218 172 235 0 7 4 13 9 13 4 0 8 13 7 30 -1 26 -5 30 -38 35 -21 4 -38 11 -38
15 0 5 -8 11 -17 13 -10 3 8 3 40 0 36 -4 57 -2 57 5 0 31 -103 30 -169 -3
-42 -22 -58 -25 -101 -19 -68 9 -72 21 -7 21 41 0 66 8 117 37 37 20 57 36 48
37 -10 1 -24 2 -30 3 -7 1 -16 9 -20 19 -9 22 -63 23 -72 2 -8 -22 -51 -37
-131 -46 -38 -4 -104 -15 -145 -24 -86 -17 -224 -36 -290 -39 -55 -2 -118 -34
-191 -97 -30 -26 -90 -67 -132 -89 l-77 -42 0 -2514 0 -2514 2300 0 2300 0 0
30 c0 20 5 30 15 30 8 0 15 5 15 10 0 6 -9 10 -20 10 -11 0 -20 5 -20 10 0 6
-7 10 -15 10 -8 0 -15 -4 -15 -10 0 -5 -6 -10 -14 -10 -10 0 -13 13 -12 45 1
28 -3 45 -10 45 -14 0 -24 35 -20 70 3 29 -3 10 128 402 l102 308 -30 32 c-16
18 -38 49 -48 68 -10 19 -24 40 -31 45 -12 10 -35 49 -35 60 0 17 72 -67 79
-92 10 -36 54 -64 73 -45 13 13 19 184 7 196 -9 9 -120 35 -178 41 -30 3 -84
12 -120 20 -36 8 -75 17 -86 19 -11 2 -47 10 -80 17 -33 7 -69 17 -80 23 -17
9 -13 12 30 17 l50 6 -62 1 c-60 2 -63 3 -63 27 0 24 -3 25 -55 25 -51 0 -72
12 -42 23 6 3 -5 6 -25 6 -21 1 -38 -3 -38 -9 0 -5 -7 -10 -16 -10 -10 0 -14
-6 -10 -15 3 -8 1 -15 -4 -15 -18 0 -10 29 10 40 38 20 20 30 -53 30 -43 0
-78 5 -85 12 -17 17 -28 2 -12 -17 8 -9 30 -15 59 -16 25 0 40 -3 33 -6 -6 -2
-10 -9 -6 -14 3 -5 0 -9 -6 -9 -17 0 -114 33 -120 40 -3 4 -22 10 -42 13 -20
3 -53 13 -72 22 -19 9 -47 15 -63 13 -28 -3 -28 -3 -27 -73 1 -38 5 -129 9
-201 6 -94 4 -140 -4 -167 -12 -35 -10 -39 28 -94 22 -32 42 -69 46 -83 5 -23
5 -23 -6 -5 -6 11 -32 42 -58 68 l-46 48 3 86 c3 83 -23 289 -38 306 -4 5 -20
-9 -36 -30 -16 -21 -45 -57 -65 -81 -57 -66 -87 -141 -103 -252 -8 -54 -17
-104 -21 -110 -4 -7 -35 -25 -69 -40 -34 -15 -69 -36 -78 -46 -19 -22 -57
-106 -83 -184 -10 -30 -20 -50 -22 -43 -6 18 65 224 85 247 9 10 40 29 67 41
28 13 57 30 64 39 7 9 17 53 22 99 5 45 13 97 18 116 9 29 72 143 148 269 29
47 29 60 1 36 -22 -19 -22 -19 1 14 12 17 28 32 34 32 19 0 39 51 26 67 -6 7
-16 13 -21 13 -6 0 -62 25 -125 56 -103 50 -113 57 -101 72 12 15 11 16 -4 3
-15 -11 -24 -11 -58 3 -22 9 -45 16 -50 16 -14 0 -42 -46 -50 -83 l-7 -32 -8
30 c-6 22 -3 39 13 69 12 21 21 40 20 41 -2 1 -30 12 -63 25 -33 13 -71 30
-85 37 -32 16 -35 11 -15 -26 20 -41 10 -59 -19 -33 -41 38 -59 42 -147 32
-101 -11 -125 -18 -205 -59 -34 -17 -64 -31 -68 -31 -4 0 -40 -25 -80 -55
l-73 -55 -7 -73 c-4 -51 -18 -99 -45 -162 -21 -50 -46 -121 -55 -160 -10 -38
-32 -92 -49 -120 -17 -27 -48 -81 -70 -120 -25 -45 -36 -59 -32 -40 6 26 31
80 88 190 9 17 23 66 33 110 9 44 27 112 40 151 25 75 42 184 29 184 -7 0 -93
-39 -185 -83 -32 -16 -55 -38 -82 -78 -39 -60 -87 -102 -153 -134 -22 -11 -78
-58 -125 -105 -164 -163 -226 -216 -272 -229 -62 -19 -108 -45 -145 -81 -18
-18 -33 -28 -33 -22 0 6 14 22 30 35 17 14 30 29 30 34 0 5 9 13 19 18 11 6
46 23 78 40 56 29 243 200 243 223 0 17 -27 21 -67 10 -23 -6 -62 -7 -98 -3
-133 17 -162 9 -290 -86 -47 -34 -136 -81 -142 -75 -3 2 22 21 54 41 61 39
103 74 103 86 0 3 -24 10 -52 13 -29 4 -69 16 -88 27 l-35 20 35 -6 c19 -3 65
-8 101 -11 61 -6 69 -4 110 22 42 28 50 29 159 29 154 1 270 21 270 46 0 5 4
9 9 9 5 0 34 17 65 37 39 27 66 56 91 98 50 84 60 92 173 140 201 85 282 142
331 234 38 72 58 87 133 103 32 7 58 15 58 18 0 15 -99 29 -131 20 -47 -14
-122 -12 -142 2 -15 11 -8 13 45 15 35 1 90 3 123 5 38 2 79 -3 111 -14 63
-22 122 -11 119 22 -2 24 -80 108 -112 121 -13 5 -23 17 -23 27 0 9 -7 28 -16
40 -22 32 -13 36 18 7 17 -16 33 -22 47 -18 22 6 30 -12 9 -20 -8 -3 -6 -6 4
-6 9 -1 24 9 33 22 17 22 17 22 13 -15 l-4 -36 43 1 43 2 0 92 c0 85 -2 94
-25 117 -14 14 -25 33 -25 42 0 9 -8 23 -17 30 -15 10 -16 15 -5 25 14 15 16
89 2 89 -5 0 -10 -4 -10 -8 0 -5 -52 -12 -115 -15 -86 -5 -120 -10 -132 -22
-12 -12 -33 -16 -88 -14 -71 2 -73 2 -136 55 -37 31 -74 54 -88 54 -20 0 -22
2 -10 16 7 9 42 31 78 50 36 18 93 49 126 67 33 19 105 59 160 89 167 92 199
110 220 124 27 19 32 18 63 -15 15 -15 54 -57 88 -92 88 -93 186 -177 304
-261 25 -17 47 -34 50 -37 11 -13 129 -81 140 -81 6 0 22 12 35 27 13 16 53
46 89 68 67 41 73 51 41 69 -10 6 -26 16 -34 23 -107 79 -179 135 -301 232
-79 64 -153 122 -164 130 -26 20 -92 31 -105 18 -6 -6 -14 -8 -17 -4 -11 10
47 54 126 96 41 22 91 49 110 61 19 11 125 65 235 121 109 55 232 120 272 145
40 24 75 44 78 44 3 0 22 11 43 24 20 13 84 49 142 81 58 32 112 64 120 71 8
7 62 37 120 67 58 30 157 86 220 126 63 39 121 71 128 71 11 0 13 -12 8 -58
-8 -67 -41 -251 -61 -337 -7 -33 -16 -89 -20 -125 -7 -65 -6 -66 20 -78 20 -9
36 -10 59 -2 30 10 32 14 55 118 12 59 38 170 57 247 51 216 103 443 145 640
75 354 141 655 217 985 38 164 62 273 148 680 19 91 53 239 74 330 21 91 57
246 80 345 23 99 46 196 51 216 l9 36 314 62 c286 57 346 65 332 42 -9 -14
-122 -536 -176 -811 -5 -25 -22 -106 -39 -180 -17 -74 -55 -254 -86 -400 -92
-440 -176 -822 -191 -872 -12 -39 24 -22 228 108 42 27 94 59 115 72 l39 23
27 132 c30 140 163 738 272 1222 96 424 141 631 155 712 7 40 19 74 26 77 63
24 602 142 610 133 4 -3 -10 -79 -29 -169 -20 -90 -61 -275 -91 -413 -49 -224
-160 -716 -186 -820 -5 -22 -34 -152 -65 -290 -30 -137 -80 -356 -110 -485
-65 -275 -109 -467 -130 -565 -8 -38 -23 -105 -33 -148 l-17 -78 -70 -38
c-167 -90 -323 -176 -505 -277 -107 -59 -238 -131 -290 -159 -52 -28 -153 -84
-225 -125 -71 -40 -148 -83 -170 -95 -22 -12 -112 -61 -200 -110 -238 -131
-324 -175 -346 -175 -11 0 -34 -6 -52 -14 -30 -12 -33 -17 -29 -50 3 -22 0
-36 -7 -36 -6 0 -11 -9 -11 -20 0 -11 5 -20 10 -20 6 0 10 5 10 10 0 6 12 10
27 10 14 0 41 11 59 25 19 14 35 24 36 23 2 -2 19 7 38 19 69 42 111 63 125
63 8 0 20 8 27 18 7 10 20 21 29 24 13 5 16 2 11 -14 -4 -17 -99 -88 -135
-101 -7 -2 -9 -8 -4 -12 9 -10 45 7 122 60 33 23 103 62 155 87 52 25 165 84
250 130 353 192 654 346 895 458 99 46 197 94 217 107 21 13 39 23 42 23 10 0
227 127 276 162 30 21 82 65 115 96 33 31 74 69 91 83 18 14 35 37 39 50 11
35 23 39 92 33 l62 -7 83 67 c46 37 91 74 101 82 11 9 47 27 80 42 34 14 67
32 72 38 16 19 124 84 139 84 8 0 16 6 19 13 2 8 33 12 108 12 102 0 106 1
197 44 50 25 92 47 92 50 0 11 -15 28 -35 39 -17 10 -14 10 15 4 34 -7 86 -8
145 -2 17 1 65 -7 107 -18 50 -13 88 -18 105 -13 27 7 28 10 31 84 2 49 -1 77
-8 77 -29 0 -3 20 53 40 34 12 136 58 227 102 347 168 343 166 414 244 54 59
81 80 152 114 84 42 95 51 231 196 59 62 51 31 -14 -55 -62 -82 -116 -132
-178 -163 -33 -17 -79 -46 -103 -65 -53 -43 -138 -167 -117 -171 12 -3 25 -84
23 -147 0 -11 2 -65 4 -120 5 -93 7 -101 29 -112 13 -7 49 -13 80 -13 46 0 63
5 92 28 20 15 53 40 74 56 21 16 65 55 98 87 68 65 130 109 154 109 9 0 33 11
52 25 39 26 152 85 163 85 21 0 -130 -106 -216 -152 -29 -15 -86 -61 -127
-102 -42 -41 -88 -85 -103 -96 -16 -12 -28 -25 -28 -29 0 -3 24 -12 53 -18 28
-6 81 -18 117 -26 62 -15 66 -15 98 5 30 19 42 20 125 13 168 -14 362 -10 451
10 65 15 76 15 117 1 24 -9 47 -16 52 -16 4 0 7 1208 7 2685 l0 2685 -5120 0
-5120 0 0 -1863z m5847 1561 c-3 -8 -6 -5 -6 6 -1 11 2 17 5 13 3 -3 4 -12 1
-19z m-1002 -616 c0 -18 -20 -15 -23 4 -3 10 1 15 10 12 7 -3 13 -10 13 -16z
m-2021 -542 l7 -25 -15 25 c-17 28 -21 50 -7 35 5 -6 12 -21 15 -35z m3876
-210 c0 -5 -10 -10 -22 -9 -22 0 -22 1 -3 9 11 5 21 9 23 9 1 1 2 -3 2 -9z
m435 -209 c3 -5 1 -12 -5 -16 -5 -3 -10 1 -10 9 0 18 6 21 15 7z m5 -56 c0 -8
-4 -15 -10 -15 -5 0 -10 7 -10 15 0 8 5 15 10 15 6 0 10 -7 10 -15z m-5807
-492 c-7 -2 -19 -2 -25 0 -7 3 -2 5 12 5 14 0 19 -2 13 -5z m8357 -63 c0 -5
-33 -28 -72 -51 -40 -24 -134 -79 -208 -124 -74 -44 -229 -137 -345 -206 -681
-405 -1295 -775 -1295 -780 0 -3 24 -21 53 -39 70 -45 440 -292 548 -366 47
-33 161 -111 253 -174 151 -104 445 -298 492 -326 17 -10 15 -13 -21 -36 -22
-13 -137 -74 -255 -135 -118 -61 -255 -132 -305 -158 -85 -45 -129 -68 -307
-164 -40 -21 -122 -64 -183 -96 -386 -203 -510 -268 -585 -309 -47 -26 -142
-75 -211 -111 -69 -35 -141 -72 -160 -83 -108 -61 -598 -312 -608 -312 -7 0
-10 8 -7 18 3 9 7 28 10 42 51 244 200 898 207 906 5 6 42 26 81 44 40 18 152
70 248 115 343 162 407 192 563 260 86 38 157 73 157 77 0 4 -53 33 -117 66
-65 32 -154 78 -198 102 -44 23 -177 94 -295 158 -118 64 -217 117 -219 119
-7 5 32 191 145 703 31 140 59 267 61 283 4 17 13 29 27 32 11 2 73 16 136 29
63 14 167 36 230 50 63 14 203 43 310 65 195 40 477 101 770 166 323 71 850
189 965 215 143 34 135 32 135 20z m-857 -7 c-7 -2 -19 -2 -25 0 -7 3 -2 5 12
5 14 0 19 -2 13 -5z m-46 -9 c-3 -3 -12 -4 -19 -1 -8 3 -5 6 6 6 11 1 17 -2
13 -5z m-6568 -548 c-2 -2 -22 -6 -44 -9 -27 -4 -35 -3 -25 3 14 9 79 15 69 6z
m106 -116 c-16 -4 -37 -11 -46 -14 -10 -5 -16 -2 -16 9 0 11 11 15 46 14 42
-1 43 -2 16 -9z m-205 -10 c12 -8 11 -10 -7 -10 -12 0 -25 5 -28 10 -8 13 15
13 35 0z m60 0 c0 -5 -4 -10 -10 -10 -5 0 -10 5 -10 10 0 6 5 10 10 10 6 0 10
-4 10 -10z m6395 -347 c27 -82 52 -150 55 -153 4 -3 14 -32 24 -65 10 -33 31
-96 48 -140 83 -220 93 -255 73 -255 -7 0 -18 7 -25 15 -7 8 -18 15 -25 15
-13 0 -76 30 -85 41 -3 3 -115 75 -249 160 -246 155 -347 233 -336 260 3 8 40
32 82 53 42 20 101 54 132 73 98 64 235 143 246 143 6 0 33 -66 60 -147z
m-6938 115 c-3 -8 -6 -5 -6 6 -1 11 2 17 5 13 3 -3 4 -12 1 -19z m3579 -25
c-10 -35 -85 -351 -112 -477 -16 -70 -33 -130 -39 -131 -5 -2 -64 -17 -130
-35 -240 -63 -630 -172 -646 -181 -19 -10 -108 -353 -96 -366 8 -8 146 24 546
129 145 37 265 67 266 66 3 -4 -52 -253 -101 -455 l-37 -152 -231 -75 c-127
-41 -307 -98 -401 -127 -93 -28 -175 -57 -181 -63 -6 -6 -18 -43 -27 -81 -9
-39 -39 -149 -67 -245 -27 -95 -48 -176 -45 -178 3 -3 42 11 87 30 46 20 133
57 193 83 156 67 418 182 498 218 37 16 70 28 73 25 3 -3 -19 -118 -50 -254
-30 -137 -62 -289 -71 -339 -9 -49 -20 -99 -24 -111 -6 -14 -91 -64 -253 -149
-133 -71 -259 -137 -278 -148 -19 -11 -93 -51 -165 -90 -71 -38 -182 -98 -245
-132 -63 -34 -160 -86 -215 -115 -55 -29 -113 -60 -130 -70 -16 -10 -93 -50
-170 -90 -77 -40 -153 -82 -168 -93 -16 -10 -31 -17 -34 -13 -5 5 37 210 103
496 30 132 181 818 229 1045 20 94 54 242 75 330 21 88 59 259 85 380 92 424
246 1069 257 1076 6 4 28 10 47 14 20 3 185 37 366 75 182 38 391 81 465 95
153 30 480 101 525 114 17 5 47 9 68 10 32 1 37 -2 33 -16z m-3703 -251 c-3
-12 -9 -22 -14 -22 -12 0 -11 7 3 30 15 24 19 21 11 -8z m4351 -1374 c4 -29 7
-62 6 -73 -2 -80 -4 -95 -11 -95 -5 0 -9 -6 -9 -13 0 -8 -8 -23 -17 -34 -22
-24 -73 -36 -73 -17 0 7 6 11 14 8 11 -4 15 14 21 88 4 60 13 102 23 118 17
25 19 30 21 63 2 36 19 6 25 -45z m2346 -108 c12 -8 11 -10 -5 -9 -11 1 -31 5
-45 9 -24 8 -24 8 5 9 17 0 37 -4 45 -9z m-5810 -2681 c0 -6 -4 -7 -10 -4 -5
3 -10 11 -10 16 0 6 5 7 10 4 6 -3 10 -11 10 -16z m-30 1 c0 -5 -4 -10 -9 -10
-6 0 -13 5 -16 10 -3 6 1 10 9 10 9 0 16 -4 16 -10z m30 -36 c0 -14 -3 -14
-15 -4 -8 7 -15 14 -15 16 0 2 7 4 15 4 8 0 15 -7 15 -16z m1649 -960 c17 -4
31 -13 31 -21 0 -10 -4 -11 -19 -3 -11 5 -31 10 -46 10 -15 0 -24 4 -20 10 7
12 12 12 54 4z m84 -41 c-7 -2 -19 -2 -25 0 -7 3 -2 5 12 5 14 0 19 -2 13 -5z
m-3053 -378 c-7 -9 -15 -13 -17 -11 -7 7 7 26 19 26 6 0 6 -6 -2 -15z"/>
<path d="M5202 9701 c-17 -36 -14 -51 4 -19 9 17 20 25 29 22 9 -4 15 0 15 9
0 25 -35 16 -48 -12z"/>
<path d="M5033 9589 c3 -9 0 -22 -6 -28 -8 -8 -8 -11 1 -11 7 0 12 -13 12 -31
0 -17 4 -28 10 -24 6 3 10 14 10 24 0 10 7 24 15 31 20 17 19 30 -3 30 -10 0
-24 6 -31 13 -11 10 -13 9 -8 -4z"/>
<path d="M5630 9445 c-7 -16 -13 -43 -13 -58 0 -15 -3 -23 -7 -16 -12 19 -30
-49 -20 -74 5 -14 9 -16 9 -6 1 8 7 24 15 34 13 18 14 17 9 -10 -3 -17 -14
-41 -24 -56 -12 -17 -15 -30 -8 -40 7 -12 9 -12 9 1 0 8 14 35 30 59 24 35 30
54 29 95 -1 28 -4 62 -9 76 l-7 25 -13 -30z"/>
<path d="M4894 9349 c-3 -6 -1 -16 5 -22 8 -8 11 -5 11 11 0 24 -5 28 -16 11z"/>
<path d="M5535 9185 c-17 -33 -18 -38 -4 -49 9 -6 14 -17 11 -24 -3 -9 -7 -10
-17 -2 -11 9 -12 7 -8 -9 3 -13 1 -21 -7 -21 -6 0 -10 -10 -8 -22 2 -13 9 -22
15 -21 9 2 10 -4 3 -23 -23 -61 2 -38 40 37 30 59 42 149 20 149 -5 0 -11 -8
-11 -17 -1 -10 -4 -5 -8 10 l-6 28 -20 -36z"/>
<path d="M2120 8577 c0 -9 54 -62 93 -92 21 -16 55 -54 74 -84 35 -55 48 -68
98 -104 38 -27 55 -77 47 -134 -9 -56 -6 -79 12 -86 9 -4 11 2 8 21 -4 21 -2
24 13 18 11 -4 31 2 52 14 19 11 39 18 44 15 5 -4 9 1 9 10 0 9 -4 14 -9 11
-5 -3 -17 49 -27 116 -14 92 -23 127 -39 144 -18 20 -121 62 -247 101 -27 8
-48 18 -48 23 0 4 -11 11 -24 14 -13 3 -31 9 -40 12 -9 3 -16 4 -16 1z"/>
<path d="M5685 8509 c-16 -16 -31 -25 -33 -19 -5 15 -29 12 -48 -7 -10 -10
-20 -17 -23 -16 -3 2 -6 -5 -6 -14 0 -10 -9 -19 -20 -22 -11 -2 -32 -15 -46
-30 -52 -52 -87 -81 -98 -81 -6 0 -11 -4 -11 -10 0 -5 -7 -10 -16 -10 -8 0
-21 -6 -28 -12 -23 -25 -56 -76 -56 -88 0 -7 -8 -19 -17 -26 -17 -13 -17 -13
0 -14 10 0 16 -4 13 -9 -4 -5 -2 -11 3 -13 5 -1 13 -16 17 -32 6 -27 5 -29
-17 -24 -22 4 -24 1 -26 -38 -2 -33 2 -44 15 -47 9 -3 2 -5 -17 -6 -40 -1 -37
-10 3 -13 37 -3 43 -21 17 -54 -22 -28 -28 -50 -11 -39 6 4 10 -7 10 -24 0
-17 5 -31 11 -31 5 0 7 -4 4 -10 -3 -5 0 -20 7 -32 6 -13 13 -27 14 -33 1 -5
10 -39 19 -75 17 -65 23 -188 15 -312 -4 -60 -2 -70 17 -88 12 -11 26 -20 32
-20 5 0 11 -6 14 -12 4 -10 7 -10 18 0 7 6 20 12 30 12 9 0 27 8 40 18 13 11
37 22 53 26 15 4 34 13 41 20 8 8 41 13 86 14 40 1 77 6 83 12 5 5 16 10 23
10 15 0 29 10 75 53 16 15 34 27 39 27 5 0 9 6 9 14 0 8 10 16 23 18 14 2 23
11 25 24 2 12 12 24 23 27 12 3 19 14 19 29 0 13 5 29 12 36 7 7 9 12 6 12 -4
0 9 24 28 52 19 29 34 59 34 66 0 7 5 10 10 7 19 -12 10 11 -10 25 -11 8 -20
19 -20 25 0 7 -11 22 -25 35 -14 13 -23 25 -21 28 7 6 -28 42 -41 42 -7 0 -13
4 -13 10 0 13 86 2 123 -15 15 -8 27 -10 27 -6 0 8 -29 53 -44 66 -6 6 -29 36
-50 68 -22 33 -52 72 -68 89 -17 18 -28 41 -28 59 0 15 -7 32 -15 36 -9 6 -16
30 -18 72 -4 67 -23 96 -55 84 -10 -5 -13 -3 -8 6 5 8 -1 21 -14 33 -14 13
-25 17 -29 10 -8 -13 -25 6 -27 31 -2 19 11 23 19 7 3 -6 4 -5 3 2 -1 7 -12
14 -23 16 -24 4 -41 51 -22 62 14 9 3 30 -14 29 -7 -1 -25 -14 -42 -30z m195
-183 c0 -3 -4 -8 -10 -11 -5 -3 -10 -1 -10 4 0 6 5 11 10 11 6 0 10 -2 10 -4z
m2 -48 c-7 -7 -12 -8 -12 -2 0 14 12 26 19 19 2 -3 -1 -11 -7 -17z m-342 -199
c0 -6 -4 -7 -10 -4 -5 3 -10 11 -10 16 0 6 5 7 10 4 6 -3 10 -11 10 -16z
m-190 -125 c0 -8 -4 -12 -10 -9 -5 3 -10 10 -10 16 0 5 5 9 10 9 6 0 10 -7 10
-16z"/>
<path d="M5887 8531 c-10 -4 -19 -11 -20 -16 -1 -6 -10 -9 -21 -7 -12 1 -16
-3 -13 -12 3 -7 1 -18 -5 -24 -12 -12 10 -50 35 -58 9 -3 15 -9 12 -14 -7 -11
24 -22 38 -13 6 4 8 0 4 -9 -3 -9 2 -23 13 -33 10 -9 16 -24 13 -34 -2 -9 3
-23 11 -30 9 -8 16 -22 16 -32 0 -20 1 -21 40 -21 69 -2 70 -1 70 47 0 25 5
45 10 45 6 0 10 33 10 80 0 47 -4 80 -10 80 -5 0 -10 12 -10 26 l0 26 -80 -7
c-56 -5 -80 -4 -80 4 0 12 -7 13 -33 2z m23 -61 c0 -5 -2 -10 -4 -10 -3 0 -8
5 -11 10 -3 6 -1 10 4 10 6 0 11 -4 11 -10z m-40 -20 c0 -5 -4 -10 -10 -10 -5
0 -10 5 -10 10 0 6 5 10 10 10 6 0 10 -4 10 -10z"/>
<path d="M3600 8440 c0 -22 5 -40 10 -40 6 0 10 18 10 40 0 22 -4 40 -10 40
-5 0 -10 -18 -10 -40z"/>
<path d="M6860 8209 c0 -7 -8 -18 -17 -26 -17 -14 -17 -14 0 -9 10 3 23 6 28
6 5 0 9 9 9 20 0 11 -4 20 -10 20 -5 0 -10 -5 -10 -11z"/>
<path d="M5944 8156 c-4 -12 1 -25 16 -39 l22 -22 -6 30 c-10 40 -24 53 -32
31z"/>
<path d="M6014 8163 c-19 -6 3 -92 33 -132 15 -20 48 -61 74 -91 26 -30 49
-66 51 -80 2 -21 8 -25 35 -25 l31 0 4 115 c5 133 5 133 -94 171 -32 12 -56
25 -53 29 3 5 -10 7 -30 6 -19 -2 -36 0 -37 4 -2 4 -8 5 -14 3z"/>
<path d="M3720 8136 c-6 -8 -18 -12 -26 -9 -14 5 -21 -27 -8 -40 7 -6 64 42
64 55 0 13 -16 9 -30 -6z"/>
<path d="M7410 8130 c0 -5 7 -7 15 -4 8 4 15 8 15 10 0 2 -7 4 -15 4 -8 0 -15
-4 -15 -10z"/>
<path d="M3790 8115 c-7 -9 -10 -18 -7 -21 3 -3 10 4 17 15 13 25 8 27 -10 6z"/>
<path d="M7426 8095 c4 -8 11 -15 16 -15 6 0 5 6 -2 15 -7 8 -14 15 -16 15 -2
0 -1 -7 2 -15z"/>
<path d="M3815 8090 c3 -5 11 -10 16 -10 6 0 7 5 4 10 -3 6 -11 10 -16 10 -6
0 -7 -4 -4 -10z"/>
<path d="M3760 8065 c0 -11 11 -15 43 -14 23 1 34 3 25 6 -10 2 -18 9 -18 14
0 5 -11 9 -25 9 -16 0 -25 -6 -25 -15z"/>
<path d="M3860 8041 c0 -22 -5 -41 -12 -44 -8 -2 -9 -8 -4 -13 5 -5 11 -4 13
4 3 6 13 12 24 12 16 0 19 7 19 40 0 33 -3 40 -20 40 -17 0 -20 -7 -20 -39z"/>
<path d="M3923 8038 c1 -25 -1 -44 -5 -41 -5 2 -8 -1 -8 -6 0 -6 -6 -11 -13
-11 -15 0 -62 -78 -53 -87 3 -4 6 -1 6 5 0 6 9 14 20 17 11 3 20 11 20 16 0 6
13 21 29 35 28 23 31 32 18 64 -3 8 -8 24 -11 35 -3 11 -4 -1 -3 -27z"/>
<path d="M7540 8030 c0 -5 5 -10 11 -10 5 0 7 5 4 10 -3 6 -8 10 -11 10 -2 0
-4 -4 -4 -10z"/>
<path d="M7568 8003 c7 -3 16 -2 19 1 4 3 -2 6 -13 5 -11 0 -14 -3 -6 -6z"/>
<path d="M3640 7967 c-111 -66 -130 -79 -124 -88 3 -5 11 -9 18 -9 8 0 21 -10
29 -22 l16 -23 17 25 c9 14 38 45 63 70 25 26 52 54 60 63 23 29 -17 21 -79
-16z"/>
<path d="M3940 7965 c-13 -14 -19 -25 -13 -25 6 0 18 11 27 25 9 14 15 25 13
25 -2 0 -14 -11 -27 -25z"/>
<path d="M3857 7883 c-4 -3 -7 -11 -7 -17 0 -6 5 -5 12 2 6 6 9 14 7 17 -3 3
-9 2 -12 -2z"/>
<path d="M3452 7844 c-24 -16 -29 -34 -10 -34 6 0 20 -8 30 -17 16 -14 23 -15
39 -5 16 10 19 10 19 -3 0 -8 5 -15 10 -15 20 0 9 41 -16 65 -31 29 -42 30
-72 9z"/>
<path d="M6539 7850 c-55 -5 -71 -11 -102 -40 -40 -36 -46 -50 -21 -50 13 0
14 -3 5 -14 -14 -17 -8 -22 84 -71 39 -21 88 -50 111 -66 51 -34 181 -104 214
-114 22 -7 23 -6 11 9 -12 15 -8 16 47 16 41 0 63 5 72 15 7 8 23 15 36 15 12
0 26 5 29 10 4 6 11 8 16 5 5 -4 9 -1 9 5 0 11 -82 95 -131 135 -58 47 -98 75
-108 75 -6 0 -11 3 -11 8 0 4 -26 22 -59 40 -62 34 -76 35 -202 22z"/>
<path d="M5184 7799 c-11 -13 -17 -32 -16 -54 2 -18 -1 -36 -6 -39 -5 -3 -10
-40 -11 -83 -1 -42 -9 -115 -18 -163 -9 -47 -16 -93 -16 -102 -1 -9 -5 -14
-10 -11 -6 3 -8 -10 -5 -30 2 -20 1 -38 -3 -39 -3 -2 -9 -21 -13 -42 -7 -36
-6 -39 9 -26 14 12 16 12 14 -1 -1 -7 4 -26 11 -42 14 -28 27 -29 75 -6 26 12
59 100 76 196 13 78 1 216 -26 298 -8 22 -17 66 -20 97 -7 66 -15 75 -41 47z"/>
<path d="M2130 7740 c0 -5 5 -10 11 -10 5 0 7 5 4 10 -3 6 -8 10 -11 10 -2 0
-4 -4 -4 -10z"/>
<path d="M2288 7183 c6 -2 18 -2 25 0 6 3 1 5 -13 5 -14 0 -19 -2 -12 -5z"/>
<path d="M2370 7170 c-35 -7 -35 -7 -5 -9 17 0 37 4 45 9 17 11 11 11 -40 0z"/>
<path d="M1680 6635 c0 -43 4 -75 10 -75 6 0 10 32 10 75 0 43 -4 75 -10 75
-6 0 -10 -32 -10 -75z"/>
<path d="M1586 6415 c-3 -8 -1 -15 4 -15 6 0 10 7 10 15 0 8 -2 15 -4 15 -2 0
-6 -7 -10 -15z"/>
<path d="M0 6240 c0 -75 4 -120 10 -120 6 0 46 -36 89 -80 l78 -79 94 -17 c52
-8 130 -24 174 -34 57 -13 102 -17 150 -14 39 3 105 5 148 5 80 -1 142 18 135
42 -3 7 -31 20 -64 31 -32 10 -86 29 -119 42 -34 13 -105 34 -158 48 -54 14
-106 30 -117 36 -10 5 -38 11 -62 11 -24 1 -33 4 -20 6 31 6 28 18 -10 34 -17
7 -64 36 -104 65 -80 57 -212 144 -219 144 -3 0 -5 -54 -5 -120z"/>
<path d="M705 6206 c-63 -15 -100 -35 -88 -47 5 -5 61 -25 125 -44 65 -20 137
-47 160 -60 49 -27 118 -43 118 -27 0 10 -89 113 -120 140 -50 42 -121 56
-195 38z"/>
<path d="M0 5841 l0 -263 46 7 c26 3 105 25 178 46 72 22 150 46 173 53 52 15
65 26 30 26 -15 0 -27 5 -27 11 0 6 9 8 20 4 39 -12 99 -7 128 11 16 11 53 37
81 58 l53 39 -39 13 c-21 8 -54 14 -73 14 -33 0 -247 43 -355 71 -32 9 -63 26
-85 49 -20 19 -57 55 -83 80 l-47 44 0 -263z"/>
<path d="M913 5883 c-24 -13 -43 -28 -43 -33 0 -15 67 -58 108 -69 22 -7 47
-17 54 -24 26 -25 140 -107 149 -107 5 0 9 6 9 13 0 8 3 7 10 -3 5 -8 11 -12
13 -10 39 50 49 73 39 96 -7 13 -9 30 -6 37 9 25 -71 66 -225 116 -46 15 -59
13 -108 -16z"/>
<path d="M666 5871 c-10 -15 39 -25 61 -12 14 8 14 10 3 11 -8 0 -25 3 -36 6
-12 3 -25 1 -28 -5z"/>
<path d="M713 5775 c-38 -19 -78 -43 -87 -54 -17 -19 -17 -20 11 -34 16 -9 52
-31 81 -50 l52 -34 168 5 c92 3 175 8 184 11 25 9 -96 105 -165 131 -30 12
-67 30 -80 40 -37 29 -85 25 -164 -15z"/>
<path d="M554 5670 c-6 -6 -39 -12 -75 -15 -35 -3 -95 -16 -134 -29 -104 -36
-212 -59 -282 -60 l-63 -1 0 -253 c0 -200 3 -252 13 -246 43 27 121 86 174
134 80 71 153 101 328 135 215 41 233 48 296 109 79 77 166 95 296 61 31 -8
66 -15 78 -14 19 0 19 1 -2 9 -27 11 -29 25 -6 38 22 13 9 42 -19 43 -13 0
-109 2 -214 2 -187 2 -191 2 -230 28 -53 35 -120 69 -137 69 -7 0 -18 -5 -23
-10z"/>
<path d="M1228 5633 c7 -3 16 -2 19 1 4 3 -2 6 -13 5 -11 0 -14 -3 -6 -6z"/>
<path d="M910 5443 c-17 -5 -75 -71 -69 -78 3 -2 23 4 45 14 30 14 43 26 46
45 3 14 2 25 -1 25 -3 -1 -13 -3 -21 -6z"/>
<path d="M10045 4834 c-33 -8 -81 -12 -107 -9 -27 3 -48 2 -48 -3 0 -5 36 -43
79 -85 82 -80 150 -119 229 -132 l42 -7 0 111 0 110 -52 16 c-60 17 -64 17
-143 -1z"/>
<path d="M8970 4757 c-58 -28 -64 -38 -37 -60 29 -23 118 -19 147 8 11 10 23
16 26 12 9 -9 -5 -27 -21 -27 -8 0 -18 -8 -24 -17 -8 -15 -24 -18 -89 -18 -44
0 -84 -4 -89 -9 -4 -5 2 -5 15 -2 20 7 21 5 13 -16 -5 -13 -12 -73 -16 -134
-4 -60 -13 -128 -21 -152 -8 -23 -14 -52 -14 -63 0 -10 -10 -54 -21 -97 -46
-165 -47 -178 -21 -186 9 -3 36 -24 58 -46 80 -77 187 -105 267 -71 54 23 67
25 67 12 0 -5 -14 -14 -31 -20 -17 -6 -28 -15 -25 -20 6 -9 86 -21 163 -23 23
-1 40 -5 37 -10 -3 -5 -61 -8 -127 -8 -153 3 -278 28 -361 73 -49 28 -67 33
-89 26 -47 -13 -57 -36 -58 -131 0 -28 75 -101 149 -144 37 -21 92 -64 122
-95 177 -182 183 -189 162 -189 -13 0 -49 31 -135 116 -67 66 -103 91 -197
140 -113 59 -115 60 -135 41 -20 -19 -20 -19 10 -42 31 -26 27 -47 -5 -27 -38
24 -58 -3 -110 -148 -13 -36 -27 -70 -32 -77 -5 -6 -13 -25 -18 -42 -8 -30 -6
-32 68 -84 109 -77 239 -202 267 -256 12 -25 31 -53 41 -62 36 -32 103 -59
161 -65 32 -3 74 -10 93 -16 49 -15 166 -84 220 -131 60 -51 61 -52 106 -75
21 -11 61 -44 88 -72 l50 -51 70 1 c39 1 89 -2 111 -8 47 -11 40 -13 -80 -17
-102 -3 -132 6 -203 61 -26 19 -81 58 -122 85 -41 27 -93 62 -115 77 -60 43
-118 62 -219 72 -154 15 -182 31 -304 178 -58 70 -191 176 -248 198 l-46 18
-27 -31 c-50 -59 -61 -73 -61 -79 0 -9 -220 -295 -256 -334 -49 -51 -61 -77
-46 -100 18 -30 15 -46 -6 -27 -19 18 -52 23 -52 9 0 -9 -252 -265 -316 -320
-26 -23 -44 -32 -58 -28 -12 3 -28 1 -36 -4 -11 -7 -6 -10 19 -10 l34 0 -34
-27 c-19 -16 -44 -37 -55 -48 -91 -90 -391 -315 -493 -369 -20 -10 -38 -22
-41 -25 -5 -6 -154 -81 -255 -127 -33 -16 -62 -31 -65 -35 -3 -3 -12 -8 -20
-11 -8 -3 26 -10 75 -16 74 -10 94 -16 110 -35 11 -13 46 -43 78 -66 31 -23
57 -43 57 -45 0 -9 -137 70 -148 85 -13 18 -45 25 -164 34 -56 4 -68 3 -68
-10 0 -8 4 -15 8 -15 4 0 15 -12 24 -28 9 -15 37 -47 63 -72 77 -75 85 -83 80
-88 -7 -7 -60 36 -147 119 -105 100 -106 101 -110 87 -2 -6 -16 -8 -35 -4 -24
6 -30 11 -26 23 5 12 2 15 -10 10 -8 -3 -21 1 -28 9 -12 14 -14 14 -25 -1 -7
-9 -15 -12 -18 -7 -3 5 -27 3 -58 -6 -29 -8 -68 -17 -85 -19 -44 -7 -46 -41
-4 -49 45 -9 46 -31 3 -53 -20 -10 -43 -16 -50 -14 -9 3 -12 -1 -10 -13 2 -13
-6 -20 -32 -25 -19 -5 -52 -16 -74 -27 l-38 -19 45 -6 c25 -4 69 -4 98 -2 51
4 52 4 14 -5 -22 -5 -74 -9 -115 -10 -41 -1 -93 -8 -115 -15 -22 -7 -60 -18
-85 -25 -79 -24 -174 -77 -216 -121 -23 -24 -81 -87 -130 -139 l-89 -95 42 -6
c23 -3 48 -11 57 -18 14 -11 25 -11 71 4 41 12 71 15 114 10 50 -6 72 -2 150
24 89 30 165 44 88 17 -20 -8 -43 -19 -51 -25 -29 -24 -131 -51 -195 -51 -57
0 -72 -5 -110 -30 -27 -19 -57 -30 -77 -30 -75 0 -268 -154 -324 -257 -21 -42
-64 -93 -77 -93 -4 0 -25 -18 -47 -40 -21 -22 -45 -40 -52 -40 -8 0 -14 -3
-14 -7 -1 -5 -22 -23 -48 -42 -26 -19 -70 -61 -98 -95 -53 -64 -184 -242 -184
-251 0 -3 1242 -5 2760 -5 l2760 0 0 2244 0 2245 -22 24 c-13 13 -48 32 -78
42 -104 34 -138 55 -227 138 l-88 83 -102 2 c-81 2 -117 -2 -173 -19 -78 -23
-123 -23 -245 5 -42 9 -114 15 -180 15 -92 0 -117 -4 -155 -22z m811 -4098
c19 -6 39 -17 44 -23 6 -7 18 -15 27 -19 16 -6 58 -75 58 -96 0 -6 -7 -8 -15
-5 -8 4 -15 1 -15 -5 0 -6 5 -11 11 -11 6 0 8 -8 5 -17 -5 -15 -4 -15 9 1 8
11 15 15 15 9 0 -7 -4 -15 -10 -18 -5 -3 -10 -17 -10 -30 0 -31 -52 -90 -90
-104 -17 -5 -30 -6 -30 -2 0 5 12 12 26 15 29 8 65 46 57 59 -3 5 -10 -1 -17
-14 -6 -12 -27 -28 -46 -34 -19 -6 -36 -19 -38 -29 -3 -14 -15 -16 -85 -14
-51 2 -81 7 -80 14 1 6 -10 9 -28 6 -24 -3 -37 3 -69 36 -25 25 -40 48 -39 63
1 20 2 18 10 -8 5 -18 14 -33 19 -33 13 0 13 6 -5 39 -8 16 -21 31 -30 34 -8
4 -15 12 -14 19 0 10 2 10 6 1 3 -10 8 -10 19 1 19 19 18 30 -2 22 -23 -9 -10
39 23 82 30 40 60 53 138 62 96 11 120 11 156 -1z"/>
<path d="M9605 645 c23 -8 83 -10 79 -3 -3 4 -24 8 -47 7 -23 0 -37 -2 -32 -4z"/>
<path d="M9765 640 c4 -6 -8 -10 -29 -10 -37 0 -52 -14 -47 -44 1 -10 -3 -23
-11 -28 -10 -8 -9 -9 4 -4 9 2 19 0 21 -7 2 -7 3 -4 1 7 -1 10 2 29 7 43 8 22
14 25 44 20 29 -5 33 -3 32 14 -1 10 -7 19 -15 19 -7 0 -10 -4 -7 -10z"/>
<path d="M9805 605 c13 -78 17 -95 24 -99 9 -6 -12 120 -22 131 -5 4 -6 -10
-2 -32z"/>
<path d="M9830 600 c0 -6 5 -10 10 -10 6 0 10 -5 10 -11 0 -5 -4 -7 -10 -4
-14 9 -12 -5 9 -49 11 -22 17 -47 14 -55 -4 -14 -3 -14 5 -1 5 8 7 30 5 49 -4
23 -8 29 -14 20 -6 -10 -9 -8 -9 9 0 12 5 22 10 22 6 0 15 -10 20 -22 5 -13 9
-17 9 -10 1 7 -6 23 -15 37 -16 25 -44 41 -44 25z"/>
<path d="M9486 574 c-10 -14 -15 -31 -12 -37 3 -8 5 -7 5 2 1 8 11 25 23 38
12 13 17 23 11 23 -6 0 -18 -12 -27 -26z"/>
<path d="M9719 588 c-1 -7 0 -17 1 -23 7 -35 5 -95 -4 -92 -6 2 -10 13 -8 25
4 25 -32 52 -80 57 -20 3 -28 1 -20 -4 10 -6 9 -10 -7 -14 -25 -6 -28 -34 -3
-40 12 -3 11 -5 -6 -6 -15 -1 -21 -5 -16 -13 4 -7 3 -8 -5 -4 -7 4 -18 -5 -29
-23 -9 -17 -19 -31 -22 -31 -3 0 -10 16 -16 35 -9 27 -8 41 3 62 7 15 12 34
10 42 -3 9 -5 5 -6 -9 -1 -18 -4 -21 -10 -12 -5 9 -10 1 -14 -24 -4 -21 -2
-43 3 -48 6 -6 10 -18 10 -27 0 -9 7 -22 15 -29 12 -10 16 -9 21 4 10 26 25
18 18 -9 -4 -15 -2 -25 5 -25 11 0 15 13 11 39 -1 13 1 13 14 2 9 -7 14 -17
11 -21 -3 -4 10 -5 28 -1 40 9 118 8 134 -2 17 -11 25 24 23 96 -3 76 0 89 10
57 7 -23 8 -23 9 9 1 26 -2 32 -14 27 -8 -3 -15 -1 -15 4 0 15 -50 12 -51 -2z
m-149 -138 c0 -5 -5 -10 -11 -10 -5 0 -7 5 -4 10 3 6 8 10 11 10 2 0 4 -4 4
-10z m85 0 c-3 -5 -10 -10 -16 -10 -5 0 -9 5 -9 10 0 6 7 10 16 10 8 0 12 -4
9 -10z m72 4 c-3 -3 -12 -4 -19 -1 -8 3 -5 6 6 6 11 1 17 -2 13 -5z m3 -24 c0
-5 -7 -10 -16 -10 -8 0 -12 5 -9 10 3 6 10 10 16 10 5 0 9 -4 9 -10z"/>
<path d="M9547 543 c3 -7 9 -13 13 -13 4 0 12 6 18 13 8 9 5 12 -13 12 -14 0
-21 -5 -18 -12z"/>
<path d="M9523 510 c-15 -40 -4 -70 15 -40 10 17 9 18 -6 13 -15 -6 -15 -5 -4
10 8 9 12 23 10 33 -2 10 -7 5 -15 -16z"/>
<path d="M9790 499 c0 -30 30 -69 54 -69 22 0 20 7 -7 33 -13 12 -29 31 -35
42 -11 19 -11 19 -12 -6z"/>
<path d="M9877 454 c-4 -4 -7 -14 -7 -23 0 -11 3 -12 11 -4 6 6 10 16 7 23 -2
6 -7 8 -11 4z"/>
<path d="M9790 421 c0 -12 5 -21 10 -21 6 0 10 6 10 14 0 8 -4 18 -10 21 -5 3
-10 -3 -10 -14z"/>
<path d="M9827 413 c-4 -3 -7 -11 -7 -17 0 -6 5 -5 12 2 6 6 9 14 7 17 -3 3
-9 2 -12 -2z"/>
<path d="M9500 395 c0 -10 29 -24 34 -17 3 6 -3 12 -14 15 -11 3 -20 4 -20 2z"/>
<path d="M9770 380 c-13 -9 -13 -10 0 -10 8 0 22 5 30 10 13 9 13 10 0 10 -8
0 -22 -5 -30 -10z"/>
<path d="M9545 360 c3 -5 13 -10 21 -10 8 0 12 5 9 10 -3 6 -13 10 -21 10 -8
0 -12 -4 -9 -10z"/>
<path d="M8118 4731 c10 -6 7 -10 -12 -15 -15 -4 -32 -18 -38 -31 -6 -14 -15
-25 -21 -25 -5 0 -6 -8 -3 -17 4 -9 1 -20 -5 -24 -7 -4 -9 -15 -5 -24 5 -13
14 -16 39 -11 19 4 55 0 85 -9 75 -23 92 -11 92 63 0 31 -4 63 -8 70 -5 7 -27
13 -50 15 -23 1 -42 5 -42 10 0 4 -10 7 -22 7 -17 0 -19 -3 -10 -9z"/>
<path d="M1250 4590 c0 -5 5 -10 10 -10 6 0 10 5 10 10 0 6 -4 10 -10 10 -5 0
-10 -4 -10 -10z"/>
<path d="M8061 4543 l-34 -4 34 -35 c21 -21 42 -34 58 -34 21 0 23 2 11 11
-12 8 -11 9 6 4 21 -6 94 22 94 36 0 6 -30 12 -105 22 -16 3 -45 2 -64 0z"/>
<path d="M8007 4493 c-4 -3 -7 -11 -7 -17 0 -6 5 -5 12 2 6 6 9 14 7 17 -3 3
-9 2 -12 -2z"/>
<path d="M8160 4440 c-40 -17 -43 -20 -22 -26 12 -3 22 -10 22 -15 0 -5 9 -9
20 -9 11 0 20 1 20 3 0 1 4 17 9 35 11 37 11 37 -49 12z"/>
<path d="M8042 4413 c-6 -2 -10 -8 -7 -12 2 -5 -6 -13 -18 -20 -24 -13 -50
-80 -41 -106 4 -8 17 -18 30 -21 13 -3 24 -10 24 -14 0 -12 80 -61 90 -55 23
14 75 158 64 176 -7 12 -103 59 -119 58 -5 0 -16 -3 -23 -6z"/>
<path d="M6580 3800 c-36 -3 -85 -14 -110 -23 -25 -9 -53 -17 -62 -17 -10 0
-18 -7 -18 -15 0 -8 -7 -15 -15 -15 -8 0 -15 -4 -15 -10 0 -5 -4 -10 -9 -10
-5 0 -7 10 -3 22 3 14 2 19 -6 14 -7 -4 -12 -13 -12 -21 0 -7 -4 -15 -8 -17
-5 -1 -27 -31 -50 -65 -41 -60 -45 -86 -17 -97 9 -3 12 -16 8 -43 -4 -28 -1
-42 11 -52 10 -8 16 -29 16 -52 0 -22 5 -39 10 -39 6 0 10 -19 10 -43 l0 -43
43 4 c23 2 46 8 52 13 5 5 24 9 43 9 29 0 45 11 104 70 39 39 74 70 79 70 14
0 11 78 -3 83 -29 10 1 14 52 6 30 -4 76 -8 103 -8 l47 -1 0 80 c0 82 -2 85
-42 81 -15 -2 -18 6 -18 38 0 33 -3 40 -22 43 -15 2 -24 11 -26 26 -4 24 -14
25 -142 12z m-252 -124 c-7 -8 -15 -12 -17 -11 -5 6 10 25 20 25 5 0 4 -6 -3
-14z"/>
<path d="M8576 3721 c-7 -10 22 -37 30 -28 4 3 -1 13 -9 22 -9 8 -18 11 -21 6z"/>
<path d="M8637 3697 c-3 -8 1 -14 9 -14 16 0 19 13 5 21 -5 3 -11 0 -14 -7z"/>
<path d="M6157 3478 c-14 -18 -31 -44 -38 -58 -16 -28 -21 -90 -8 -90 8 0 10
8 13 52 1 21 16 36 16 16 0 -9 7 -21 15 -28 12 -10 15 -9 15 4 0 10 -5 14 -10
11 -7 -4 -9 2 -4 19 3 15 2 26 -4 26 -6 0 -6 9 1 24 12 24 30 27 22 3 -3 -7
-1 -34 4 -62 l10 -50 -2 51 c0 27 3 55 7 62 4 7 3 12 -2 12 -6 0 -8 9 -5 20 8
29 -2 25 -30 -12z"/>
<path d="M6690 3431 c0 -5 7 -14 15 -21 13 -10 15 -9 15 9 0 12 -6 21 -15 21
-8 0 -15 -4 -15 -9z"/>
<path d="M7456 3317 c-35 -26 -98 -88 -184 -183 -160 -174 -311 -319 -369
-354 -21 -13 -104 -83 -125 -107 -5 -4 -23 -28 -41 -53 -18 -25 -44 -50 -57
-57 -41 -20 -78 -62 -90 -101 -18 -58 -44 -112 -55 -113 -5 0 -1 -4 10 -8 11
-5 29 -5 40 -1 40 14 75 20 75 13 0 -18 -69 -46 -125 -50 -80 -6 -94 -11 -75
-24 11 -8 10 -9 -7 -4 -17 5 -23 2 -24 -9 -1 -9 -3 -20 -4 -26 -1 -5 -3 -15
-4 -21 0 -6 -7 -9 -15 -6 -10 4 -12 0 -9 -14 3 -10 8 -19 10 -19 15 0 147 69
206 109 38 25 74 49 81 52 6 4 49 28 96 54 47 26 87 52 88 56 2 5 10 9 17 9 7
0 15 3 17 8 2 4 30 27 63 51 33 25 62 47 65 51 3 3 39 34 80 70 93 80 322 308
376 375 22 28 57 75 77 105 l36 55 -18 60 c-15 50 -24 62 -47 70 -16 5 -33 15
-37 22 -11 17 -17 16 -51 -10z"/>
<path d="M4428 3243 c7 -3 16 -2 19 1 4 3 -2 6 -13 5 -11 0 -14 -3 -6 -6z"/>
<path d="M6500 2480 c0 -5 -3 -9 -7 -8 -24 6 -177 -86 -218 -132 -22 -24 -1
-28 29 -5 11 8 29 15 41 15 26 0 71 30 57 39 -7 4 -8 12 -2 21 8 13 10 12 10
-2 0 -24 4 -23 55 15 40 30 65 67 44 67 -5 0 -9 -4 -9 -10z"/>
<path d="M3703 2413 c-18 -2 -33 -8 -33 -13 0 -4 -11 -11 -24 -14 -13 -3 -45
-26 -71 -49 l-47 -44 58 -38 c31 -21 77 -46 102 -55 l45 -17 23 46 c13 25 42
65 64 87 44 45 43 46 -22 87 -27 17 -33 18 -95 10z"/>
<path d="M7691 2344 c0 -11 3 -14 6 -6 3 7 2 16 -1 19 -3 4 -6 -2 -5 -13z"/>
<path d="M3914 2301 c-28 -14 -58 -32 -67 -40 -20 -16 -47 -68 -47 -91 0 -18
54 -47 128 -70 51 -16 57 -11 68 55 3 22 13 52 20 67 18 34 19 98 2 98 -7 0
-22 2 -33 4 -11 2 -43 -8 -71 -23z"/>
<path d="M7667 2305 c-4 -8 -2 -17 3 -20 6 -4 10 3 10 14 0 25 -6 27 -13 6z"/>
<path d="M6255 2283 l-17 -28 23 22 c12 12 20 25 17 28 -3 3 -13 -7 -23 -22z"/>
<path d="M4047 2212 c-16 -48 -29 -100 -30 -116 -2 -27 3 -31 48 -48 77 -29
187 -58 340 -89 154 -31 205 -35 223 -17 9 9 13 8 17 -4 4 -10 24 -19 53 -22
78 -11 288 -15 302 -6 10 6 3 23 -29 70 -22 34 -41 68 -41 76 0 30 -25 64 -54
73 -17 6 -72 15 -122 21 -164 18 -496 93 -617 139 -55 21 -60 17 -90 -77z"/>
<path d="M7551 2209 c-13 -11 -21 -22 -18 -26 4 -3 19 6 33 20 31 31 20 36
-15 6z"/>
<path d="M7485 2151 c-3 -5 -1 -12 5 -16 5 -3 10 1 10 9 0 18 -6 21 -15 7z"/>
<path d="M4960 2107 c0 -7 9 -31 19 -53 17 -35 23 -39 56 -39 32 -1 36 2 31
20 -3 11 -6 35 -6 53 0 32 0 32 -50 32 -35 0 -50 -4 -50 -13z"/>
<path d="M7440 2110 c0 -5 5 -10 10 -10 6 0 10 5 10 10 0 6 -4 10 -10 10 -5 0
-10 -4 -10 -10z"/>
<path d="M5137 2086 c-4 -10 -5 -21 -2 -24 9 -9 17 6 13 25 -3 17 -4 17 -11
-1z"/>
<path d="M2777 2069 c7 -7 15 -10 18 -7 3 3 -2 9 -12 12 -14 6 -15 5 -6 -5z"/>
<path d="M2755 2040 c3 -5 11 -10 16 -10 6 0 7 5 4 10 -3 6 -11 10 -16 10 -6
0 -7 -4 -4 -10z"/>
<path d="M2825 2020 c3 -5 8 -10 11 -10 2 0 4 5 4 10 0 6 -5 10 -11 10 -5 0
-7 -4 -4 -10z"/>
<path d="M3088 1869 c-2 -6 -16 -11 -31 -11 -15 0 -30 -4 -33 -9 -3 -5 -4 -9
-2 -10 35 -8 98 -8 103 0 3 6 16 11 28 11 18 1 15 4 -12 15 -40 18 -48 18 -53
4z m24 -21 c-6 -6 -15 -8 -19 -4 -4 4 -1 11 7 16 19 12 27 3 12 -12z"/>
<path d="M3148 1828 c-3 -8 -21 -12 -46 -12 -23 1 -42 0 -42 -2 0 -11 83 -41
100 -37 23 6 27 23 5 23 -18 0 -19 12 -3 28 8 8 9 12 1 12 -6 0 -13 -6 -15
-12z"/>
<path d="M6400 1775 c0 -9 9 -15 21 -15 18 0 19 2 9 15 -7 8 -16 15 -21 15 -5
0 -9 -7 -9 -15z"/>
<path d="M6474 1746 c-14 -16 5 -46 30 -46 9 0 16 -4 16 -8 0 -9 9 -11 70 -13
22 -1 43 -5 45 -9 3 -5 14 -6 25 -3 11 3 20 0 20 -6 0 -6 -4 -11 -10 -11 -5 0
-10 -5 -10 -10 0 -7 16 -9 41 -6 40 4 67 16 37 16 -9 0 -18 7 -22 15 -4 12 -2
13 13 3 15 -9 22 -7 39 10 l21 21 -27 5 c-15 3 -36 5 -47 3 -12 -1 -24 8 -33
26 -22 45 -50 32 -43 -20 1 -7 -8 -13 -20 -13 -15 0 -19 5 -15 15 4 11 -1 15
-19 15 -14 0 -25 5 -25 11 0 5 -4 8 -9 4 -5 -3 -12 -1 -16 5 -9 14 -48 12 -61
-4z"/>
<path d="M6888 1753 c7 -3 16 -2 19 1 4 3 -2 6 -13 5 -11 0 -14 -3 -6 -6z"/>
<path d="M3189 1729 c15 -16 61 -22 61 -8 0 5 -9 9 -19 9 -11 0 -27 3 -37 7
-16 6 -16 5 -5 -8z"/>
<path d="M6360 1710 c-13 -8 -12 -10 3 -10 9 0 17 5 17 10 0 12 -1 12 -20 0z"/>
<path d="M6130 1429 c0 -5 5 -7 10 -4 6 3 10 8 10 11 0 2 -4 4 -10 4 -5 0 -10
-5 -10 -11z"/>
<path d="M6090 1410 c-8 -5 -10 -10 -5 -10 6 0 17 5 25 10 8 5 11 10 5 10 -5
0 -17 -5 -25 -10z"/>
<path d="M5984 1365 c-10 -8 -14 -14 -9 -15 15 0 40 18 34 24 -3 3 -14 -1 -25
-9z"/>
<path d="M4676 34 c-4 -10 -1 -14 6 -12 15 5 23 28 10 28 -5 0 -13 -7 -16 -16z"/>
</g>
</svg>
